<?xml version="1.0" standalone="no"?>
<!DOCTYPE svg PUBLIC "-//W3C//DTD SVG 20010904//EN"
 "http://www.w3.org/TR/2001/REC-SVG-20010904/DTD/svg10.dtd">
<svg version="1.0" xmlns="http://www.w3.org/2000/svg"
 width="1280.000000pt" height="763.000000pt" viewBox="0 0 1280.000000 763.000000"
 preserveAspectRatio="xMidYMid meet">
<g transform="translate(0.000000,763.000000) scale(0.100000,-0.100000)"
fill="#000000" stroke="none">
<path d="M625 7596 c11 -7 159 -101 330 -208 326 -205 523 -322 659 -390 121
-60 484 -267 896 -510 975 -574 1472 -853 1604 -901 55 -19 80 -22 246 -21
143 0 197 4 240 17 122 36 228 146 252 259 16 77 0 156 -55 268 -54 111 -177
238 -282 292 -166 86 -575 245 -990 385 -447 150 -811 257 -1780 522 -302 82
-653 179 -780 214 -296 84 -381 102 -340 73z"/>
<path d="M6275 7514 c-374 -61 -689 -361 -773 -739 -8 -40 -15 -117 -15 -180
0 -184 52 -351 157 -509 279 -419 817 -537 1257 -276 86 51 196 153 255 236
124 174 208 458 184 623 -44 303 -193 552 -416 694 -159 102 -304 147 -489
152 -71 2 -143 1 -160 -1z"/>
<path d="M6719 5225 c-79 -25 -140 -73 -172 -135 -85 -167 -48 -387 94 -566
53 -67 154 -153 273 -233 137 -92 570 -363 765 -478 267 -158 1293 -700 1569
-829 115 -54 156 -84 95 -71 -151 33 -228 46 -233 40 -8 -9 -41 -195 -36 -200
3 -3 1591 -272 1608 -273 4 0 33 -35 65 -77 192 -256 478 -485 808 -648 235
-116 381 -155 581 -155 177 0 305 45 404 144 116 115 193 270 236 476 26 126
29 169 14 232 -6 24 -17 72 -25 108 -23 100 -87 221 -157 295 -120 129 -271
190 -528 215 -85 8 -114 6 -267 -20 -442 -75 -811 -186 -1053 -317 -79 -43
-76 -43 -465 22 -448 75 -624 113 -665 143 -19 14 -123 112 -230 217 -107 105
-247 236 -310 290 -204 176 -426 382 -1140 1055 -244 230 -455 421 -619 560
-216 183 -275 211 -451 216 -82 3 -128 0 -161 -11z"/>
<path d="M6445 3843 c-156 -14 -473 -82 -690 -148 -351 -107 -806 -329 -1013
-495 -141 -114 -224 -291 -239 -515 -10 -155 42 -275 156 -356 83 -60 129 -70
323 -70 279 0 507 49 711 153 137 69 732 338 749 338 16 0 18 -12 18 -142 0
-79 -4 -190 -10 -248 -9 -107 -21 -372 -40 -880 -17 -459 -36 -854 -66 -1344
-7 -107 -7 -108 13 -97 32 16 140 146 206 246 121 183 310 599 427 940 165
483 286 1059 331 1583 7 77 9 227 6 355 -5 248 -20 333 -77 432 -96 168 -326
258 -648 253 -64 -1 -135 -3 -157 -5z"/>
<path d="M3830 3181 c-30 -10 -75 -28 -100 -40 -67 -34 -226 -202 -282 -297
-78 -132 -200 -392 -327 -694 -155 -369 -217 -506 -293 -643 -172 -313 -231
-367 -625 -576 -379 -202 -710 -339 -1483 -616 -272 -98 -533 -193 -580 -212
l-85 -33 425 5 c234 2 526 11 650 19 477 31 722 49 1165 86 180 15 468 97 640
182 177 88 290 175 465 354 283 290 498 595 711 1009 188 365 256 579 266 846
6 156 -3 239 -38 347 -40 121 -175 230 -330 267 -81 19 -111 18 -179 -4z"/>
<path d="M10794 2000 c-274 -89 -291 -472 -26 -593 70 -32 179 -30 253 5 69
32 127 88 160 154 35 72 34 187 -2 265 -70 148 -232 219 -385 169z m155 -256
c29 -36 26 -60 -9 -96 -25 -24 -36 -29 -58 -24 -89 21 -78 146 12 146 25 0 40
-7 55 -26z"/>
</g>
</svg>
